<?xml version="1.0" encoding="UTF-8"?>
<svg id="Layer_2" data-name="Layer 2" xmlns="http://www.w3.org/2000/svg" viewBox="0 0 441.78 102.44">
  <defs>
    <style>
      .cls-1 {
        fill: #fff;
      }

      .cls-2 {
        fill: none;
        stroke: #fff;
        stroke-miterlimit: 10;
        stroke-width: 2px;
      }
    </style>
  </defs>
  <g id="Layer_1-2" data-name="Layer 1">
    <g>
      <line class="cls-2" x1="18.14" y1="40.36" x2="18.14" y2="13.81"/>
      <line class="cls-2" x1="18.14" y1="91.57" x2="18.14" y2="65.03"/>
      <g>
        <path class="cls-1" d="m238.73,13.07c-.94-1.2-2.18-2.16-3.7-2.87-1.52-.71-2.99-1.06-4.41-1.06-.73,0-1.47.06-2.22.19-.75.13-1.43.38-2.03.74-.6.37-1.11.84-1.51,1.42-.41.58-.61,1.32-.61,2.22,0,.77.16,1.42.48,1.93.32.51.79.97,1.42,1.35.62.39,1.36.74,2.22,1.06.86.32,1.82.65,2.9,1,1.54.52,3.15,1.08,4.83,1.71,1.67.62,3.2,1.45,4.57,2.48,1.37,1.03,2.51,2.31,3.41,3.83.9,1.52,1.35,3.42,1.35,5.7,0,2.62-.48,4.88-1.45,6.79-.97,1.91-2.26,3.49-3.89,4.73-1.63,1.25-3.5,2.17-5.6,2.77s-4.27.9-6.5.9c-3.26,0-6.42-.57-9.46-1.71-3.05-1.14-5.58-2.76-7.6-4.86l7.21-7.34c1.12,1.37,2.59,2.52,4.41,3.44,1.82.92,3.64,1.38,5.44,1.38.81,0,1.61-.09,2.38-.26.77-.17,1.45-.45,2.03-.84s1.04-.9,1.38-1.54c.34-.64.52-1.42.52-2.32s-.22-1.59-.64-2.19c-.43-.6-1.04-1.15-1.83-1.64-.79-.49-1.78-.94-2.96-1.35-1.18-.41-2.52-.85-4.02-1.32-1.46-.47-2.89-1.03-4.28-1.67-1.4-.64-2.64-1.47-3.73-2.48-1.09-1.01-1.97-2.23-2.64-3.67-.67-1.44-1-3.19-1-5.25,0-2.53.52-4.7,1.54-6.5,1.03-1.8,2.38-3.28,4.06-4.44,1.67-1.16,3.56-2.01,5.67-2.54,2.1-.54,4.23-.8,6.37-.8,2.58,0,5.2.47,7.89,1.42,2.68.94,5.03,2.34,7.05,4.18l-7.02,7.4Z"/>
        <path class="cls-1" d="m287.27,15.26c0,2.66-.49,4.9-1.48,6.73-.99,1.82-2.32,3.29-3.99,4.41-1.67,1.12-3.61,1.93-5.79,2.45-2.19.52-4.46.77-6.82.77h-5.47v17.19h-11.01V1.22h16.74c2.49,0,4.82.25,6.99.74,2.17.49,4.06,1.29,5.67,2.38s2.88,2.53,3.8,4.31c.92,1.78,1.38,3.98,1.38,6.6Zm-11.01.06c0-1.07-.21-1.95-.64-2.64-.43-.69-1.01-1.22-1.74-1.61-.73-.39-1.56-.64-2.48-.77-.92-.13-1.88-.19-2.87-.19h-4.83v10.75h4.63c1.03,0,2.02-.09,2.96-.26.94-.17,1.79-.47,2.54-.9.75-.43,1.34-1,1.77-1.71.43-.71.64-1.6.64-2.67Z"/>
        <path class="cls-1" d="m293.9,46.8V1.22h11.07v45.58h-11.07Z"/>
        <path class="cls-1" d="m347.01,46c-2.96,1.35-6.37,2.03-10.24,2.03-3.52,0-6.77-.58-9.75-1.74-2.98-1.16-5.57-2.8-7.76-4.92-2.19-2.12-3.91-4.67-5.15-7.63-1.25-2.96-1.87-6.22-1.87-9.79s.63-6.95,1.9-9.91c1.27-2.96,3.01-5.48,5.25-7.56,2.23-2.08,4.85-3.68,7.85-4.8,3-1.12,6.24-1.67,9.72-1.67,3.22,0,6.38.57,9.5,1.71,3.11,1.14,5.63,2.8,7.56,4.99l-7.47,7.47c-1.03-1.42-2.38-2.47-4.06-3.15-1.67-.69-3.39-1.03-5.15-1.03-1.93,0-3.7.35-5.31,1.06-1.61.71-2.99,1.69-4.15,2.93-1.16,1.25-2.06,2.71-2.7,4.41-.64,1.7-.97,3.55-.97,5.57s.32,3.95.97,5.67c.64,1.72,1.53,3.19,2.67,4.41,1.14,1.22,2.5,2.18,4.09,2.86,1.59.69,3.33,1.03,5.21,1.03,2.19,0,4.1-.43,5.73-1.29,1.63-.86,2.94-1.97,3.93-3.35l7.66,7.21c-2.02,2.32-4.51,4.15-7.47,5.5Z"/>
        <path class="cls-1" d="m380.55,27.49v19.31h-11.01v-19.31l-17.12-26.27h13.33l9.72,16.87,9.72-16.87h12.88l-17.51,26.27Z"/>
        <path class="cls-1" d="m225.53,65.03v9.4h17.64v9.08h-17.64v17.7h-10.88v-45.58h30v9.4h-19.12Z"/>
        <path class="cls-1" d="m299.24,78.23c0,3.6-.62,6.9-1.87,9.88-1.25,2.98-2.97,5.54-5.18,7.66-2.21,2.12-4.84,3.77-7.89,4.92-3.05,1.16-6.35,1.74-9.92,1.74s-6.86-.58-9.88-1.74c-3.03-1.16-5.64-2.8-7.85-4.92-2.21-2.12-3.94-4.68-5.18-7.66-1.25-2.98-1.87-6.28-1.87-9.88s.62-6.94,1.87-9.88c1.24-2.94,2.97-5.44,5.18-7.5,2.21-2.06,4.83-3.65,7.85-4.76,3.03-1.12,6.32-1.67,9.88-1.67s6.87.56,9.92,1.67c3.05,1.12,5.67,2.7,7.89,4.76,2.21,2.06,3.94,4.56,5.18,7.5,1.24,2.94,1.87,6.23,1.87,9.88Zm-11.78,0c0-1.97-.32-3.82-.97-5.54-.64-1.72-1.54-3.19-2.67-4.41-1.14-1.22-2.51-2.19-4.12-2.9-1.61-.71-3.38-1.06-5.31-1.06s-3.69.35-5.28,1.06c-1.59.71-2.96,1.67-4.12,2.9s-2.05,2.69-2.67,4.41c-.62,1.72-.93,3.56-.93,5.54s.32,3.96.97,5.7,1.53,3.23,2.67,4.47c1.14,1.25,2.5,2.22,4.09,2.93s3.35,1.06,5.28,1.06,3.69-.35,5.28-1.06c1.59-.71,2.96-1.68,4.12-2.93,1.16-1.24,2.06-2.74,2.7-4.47s.97-3.64.97-5.7Z"/>
        <path class="cls-1" d="m330.92,101.21l-9.9-18.09h-3.75v18.09h-10.75v-45.58h17.38c2.19,0,4.32.23,6.41.68,2.08.45,3.95,1.21,5.6,2.29,1.65,1.07,2.97,2.49,3.96,4.25.99,1.76,1.48,3.95,1.48,6.57,0,3.09-.84,5.69-2.51,7.79-1.67,2.1-3.99,3.61-6.95,4.51l11.91,19.51h-12.88Zm-.45-31.61c0-1.07-.23-1.94-.68-2.61-.45-.67-1.04-1.18-1.75-1.55-.71-.36-1.51-.61-2.39-.74-.88-.13-1.74-.19-2.55-.19h-5.89v10.62h5.24c.91,0,1.83-.07,2.78-.23.95-.15,1.81-.42,2.59-.8s1.41-.94,1.91-1.67c.5-.73.75-1.67.75-2.83Z"/>
        <path class="cls-1" d="m390.53,101.21l.26-32.25h-.19l-11.85,32.25h-7.73l-11.52-32.25h-.19l.26,32.25h-10.36v-45.58h15.66l10.38,29.23h.26l9.93-29.23h15.92v45.58h-10.82Z"/>
        <path class="cls-1" d="m434.76,67.48c-.94-1.2-2.18-2.16-3.7-2.87-1.52-.71-2.99-1.06-4.41-1.06-.73,0-1.47.06-2.22.19-.75.13-1.43.38-2.03.74-.6.37-1.11.84-1.51,1.42-.41.58-.61,1.32-.61,2.22,0,.77.16,1.42.48,1.93.32.51.79.97,1.42,1.35.62.39,1.36.74,2.22,1.06.86.32,1.82.65,2.9,1,1.54.52,3.15,1.08,4.83,1.71,1.67.62,3.2,1.45,4.57,2.48,1.37,1.03,2.51,2.31,3.41,3.83.9,1.52,1.35,3.42,1.35,5.7,0,2.62-.48,4.88-1.45,6.79-.97,1.91-2.26,3.49-3.89,4.73-1.63,1.25-3.5,2.17-5.6,2.77s-4.27.9-6.5.9c-3.26,0-6.42-.57-9.46-1.71-3.05-1.14-5.58-2.76-7.6-4.86l7.21-7.34c1.12,1.37,2.59,2.52,4.41,3.44,1.82.92,3.64,1.38,5.44,1.38.81,0,1.61-.09,2.38-.26.77-.17,1.45-.45,2.03-.84s1.04-.9,1.38-1.54c.34-.64.52-1.42.52-2.32s-.22-1.59-.64-2.19c-.43-.6-1.04-1.15-1.83-1.64-.79-.49-1.78-.94-2.96-1.35-1.18-.41-2.52-.85-4.02-1.32-1.46-.47-2.89-1.03-4.28-1.67-1.4-.64-2.64-1.47-3.73-2.48-1.09-1.01-1.97-2.23-2.64-3.67-.67-1.44-1-3.19-1-5.25,0-2.53.52-4.7,1.54-6.5,1.03-1.8,2.38-3.28,4.06-4.44,1.67-1.16,3.56-2.01,5.67-2.54,2.1-.54,4.23-.8,6.37-.8,2.58,0,5.2.47,7.89,1.42,2.68.94,5.03,2.34,7.05,4.18l-7.02,7.4Z"/>
      </g>
      <path class="cls-1" d="m119.85,60.7c-1.5,4.77-2.27,11.32.43,18.71,2.56,7.02,6.62,12.45,10.69,16.48H5v-35.2h114.85m7.9-5H0v45.2h146.53s-15.53-6.68-21.55-23.2c-4.53-12.42,2.78-22,2.78-22h0Z"/>
      <path class="cls-1" d="m147.25,9.49c.45,1.5.72,4.53-1.2,9.93-3.33,9.37-13.55,21.13-17.32,25.27H5V9.49h142.25m2.67-5H0v45.2h130.9s15.34-15.89,19.86-28.59c4.52-12.71-.85-16.61-.85-16.61h0Z"/>
      <path class="cls-1" d="m192.11,45.65c1.69,4.1,7.07,15.34,5.07,26.91-1.32,7.69-4.86,14.3-10.37,19.83-3.1,3.11-10.91,7.45-11.17,7.51.7-1.73,1.37-3.35,2-4.98,2.08-5.38,3.24-10.94,3.03-16.73-.18-5.03-1.56-9.72-4.13-14.05-.19-.32-.82-1.12-.82-1.12,0,0,.15,2.91-1.24,5.33s-4.31,4.33-6.46,5.62c.47-4.99.55-12.65-2.07-17.85-2.47-4.9-7.64-7.48-7.64-7.48,0,0,3.21,5.26,1.05,9.9-2.28,4.88-8.03,9.34-9.3,11.58-2.15,3.77-3.67,7.74-3.66,12.18,0,4.58,1.55,8.72,3.66,12.69.33.62.95,2,.95,2,0,0-.81-.51-1.21-.77-4.01-2.62-7.72-5.6-10.84-9.26-5.89-6.9-8.77-12.75-6.1-23.69,1.57-6.43,9.85-15.91,16.91-25.13,5.92-7.73,10.17-15.74,11.05-18.24,1.93-5.47.21-12.67-1.02-14.7-.1-.16-.27-.5-.27-.5,0,0,4.05,2.18,5.89,3.54,6.34,4.66,11.05,10.59,13.69,18.06,1.76,4.99,2.4,10.14,2,15.43-.27,3.52-4.92,12.07-4.92,12.07,0,0,1.43-.22,5.55-3.7s4.26-11.1,11.27-12.79c-.04-.21-2.57,4.26-.89,8.37Z"/>
    </g>
  </g>
</svg>