<?xml version="1.0" encoding="UTF-8"?>
<svg id="Layer_2" data-name="Layer 2" xmlns="http://www.w3.org/2000/svg" viewBox="0 0 5.16 24">
  <defs>
    <style>
      .cls-1 {
        fill: #fff;
      }
    </style>
  </defs>
  <g id="Layer_1-2" data-name="Layer 1">
    <path class="cls-1" d="m5.16,2.58c0,1.42-1.15,2.58-2.58,2.58S0,4,0,2.58,1.15,0,2.58,0s2.58,1.15,2.58,2.58Zm-2.58,6.84c-1.42,0-2.58,1.15-2.58,2.58s1.15,2.58,2.58,2.58,2.58-1.15,2.58-2.58-1.15-2.58-2.58-2.58Zm0,9.42c-1.42,0-2.58,1.15-2.58,2.58s1.15,2.58,2.58,2.58,2.58-1.15,2.58-2.58-1.15-2.58-2.58-2.58Z"/>
  </g>
</svg>